<svg width="307" height="475" viewBox="0 0 307 475" fill="none" xmlns="http://www.w3.org/2000/svg">
<ellipse cx="152.807" cy="90.5" rx="97" ry="90.5" fill="#652CD1"/>
<ellipse opacity="0.2" cx="200.811" cy="63" rx="19.7436" ry="34.7883" transform="rotate(-29.8466 200.811 63)" fill="white"/>
<path d="M98.8075 167L45.8075 192.49L96.1575 217H208.341L257.807 192.49L202.157 167H98.8075Z" fill="#652CD1"/>
<path d="M98.8498 217L54.8075 374H251.807L208.955 217H98.8498Z" fill="#652CD1"/>
<path d="M34.0038 441.931C38.7687 452.386 40.092 464.408 33.3075 467.5C26.523 470.592 14.1999 463.583 9.43498 453.128C4.6701 442.673 4.02297 430.592 10.8075 427.5C17.592 424.408 29.2389 431.476 34.0038 441.931Z" fill="#652CD1"/>
<path d="M49.342 405.813C46.3558 412.777 38.0862 415.914 30.8712 412.821C23.6563 409.727 19.3213 402.464 22.3075 395.5C25.2936 388.536 34.4702 384.508 41.6851 387.602C48.9001 390.696 52.3282 398.849 49.342 405.813Z" fill="#652CD1"/>
<path d="M296.249 454.538C291.059 464.788 281.459 470.368 274.807 467C268.156 463.632 266.971 452.592 272.161 442.341C277.351 432.09 287.156 424.632 293.807 428C300.459 431.368 301.44 444.287 296.249 454.538Z" fill="#652CD1"/>
<rect x="27.8075" y="438" width="252" height="30" fill="#652CD1"/>
<rect x="6.25085" y="433.584" width="42.9073" height="30.3769" transform="rotate(-67.3024 6.25085 433.584)" fill="#652CD1"/>
<path d="M284 396.5C311 458 287.053 414.565 279.787 417.508C272.521 420.452 260.707 414.175 257.789 406.971C254.871 399.768 261.217 390.204 268.483 387.26C275.749 384.317 281.082 389.297 284 396.5Z" fill="#652CD1"/>
<rect x="273.267" y="442.284" width="32.5667" height="26.6905" transform="rotate(-112.564 273.267 442.284)" fill="#652CD1"/>
<path d="M66.7778 368L81.8876 395.623L41.8075 415.5L27.6977 389.377L66.7778 368Z" fill="#652CD1"/>
<rect x="279.759" y="389.339" width="26.9147" height="41" transform="rotate(119.74 279.759 389.339)" fill="#652CD1"/>
<rect x="57.8074" y="370" width="188" height="30" fill="#652CD1"/>
<rect x="244.807" y="171" width="32" height="46" fill="white"/>
<path d="M249.307 192.353C249.307 196.414 243.554 201 238.307 201C233.061 201 228.807 196.414 228.807 192.353C228.807 188.292 233.061 185 238.307 185C243.554 185 249.307 188.292 249.307 192.353Z" fill="#652CD1"/>
<rect width="32" height="46" transform="matrix(-1 0 0 1 58.8075 170)" fill="white"/>
<path d="M53.8075 192C53.8075 196.061 60.0608 201 65.3075 201C70.5542 201 74.8075 195.414 74.8075 191.353C74.8075 187.292 70.5542 184 65.3075 184C60.0608 184 53.8075 187.939 53.8075 192Z" fill="#652CD1"/>
<rect x="32" y="393" width="242" height="55" fill="#652CD1"/>
</svg>
